<svg width="46" height="40" viewBox="0 0 46 40" fill="none" xmlns="http://www.w3.org/2000/svg">
<g filter="url(#filter0_d_0_1)">
<path d="M5.29731 4.69353C4.58082 3.51326 4.96192 1.98419 6.14852 1.27824V1.27824C7.33511 0.572292 8.87786 0.956799 9.59434 2.13706L12.1889 6.41117C12.9054 7.59143 12.5243 9.1205 11.3377 9.82645V9.82645C10.1511 10.5324 8.6084 10.1479 7.89192 8.96763L5.29731 4.69353Z" fill="#0CF469"/>
<path d="M9.16463 2.39271L11.7592 6.66681C12.3324 7.61102 12.0276 8.83428 11.0783 9.39904C10.129 9.9638 8.89481 9.6562 8.32162 8.71199L5.72701 4.43788C5.15382 3.49367 5.4587 2.27041 6.40798 1.70565C7.35725 1.14089 8.59145 1.4485 9.16463 2.39271Z" stroke="black" stroke-opacity="0.3" stroke-miterlimit="4.29067"/>
</g>
<g filter="url(#filter1_d_0_1)">
<path d="M41.1889 4.69353C41.9054 3.51326 41.5243 1.98419 40.3377 1.27824V1.27824C39.1511 0.572292 37.6084 0.956799 36.8919 2.13706L34.2973 6.41117C33.5808 7.59143 33.9619 9.1205 35.1485 9.82645V9.82645C36.3351 10.5324 37.8778 10.1479 38.5943 8.96763L41.1889 4.69353Z" fill="#0CF469"/>
<path d="M37.3216 2.39271L34.727 6.66681C34.1538 7.61102 34.4587 8.83428 35.408 9.39904C36.3572 9.9638 37.5914 9.6562 38.1646 8.71199L40.7592 4.43788C41.3324 3.49367 41.0275 2.27041 40.0783 1.70565C39.129 1.14089 37.8948 1.4485 37.3216 2.39271Z" stroke="black" stroke-opacity="0.3" stroke-miterlimit="4.29067"/>
</g>
<g filter="url(#filter2_d_0_1)">
<path d="M5.29731 4.69353C4.58082 3.51326 4.96192 1.98419 6.14852 1.27824V1.27824C7.33511 0.572292 8.87786 0.956799 9.59434 2.13706L12.1889 6.41117C12.9054 7.59143 12.5243 9.1205 11.3377 9.82645V9.82645C10.1511 10.5324 8.6084 10.1479 7.89192 8.96763L5.29731 4.69353Z" fill="#0CF469"/>
<path d="M9.16463 2.39271L11.7592 6.66681C12.3324 7.61102 12.0276 8.83428 11.0783 9.39904C10.129 9.9638 8.89481 9.6562 8.32162 8.71199L5.72701 4.43788C5.15382 3.49367 5.4587 2.27041 6.40798 1.70565C7.35725 1.14089 8.59145 1.4485 9.16463 2.39271Z" stroke="black" stroke-opacity="0.3" stroke-miterlimit="4.29067"/>
</g>
<g filter="url(#filter3_d_0_1)">
<path d="M41.1889 4.69353C41.9054 3.51326 41.5243 1.98419 40.3377 1.27824V1.27824C39.1511 0.572292 37.6084 0.956799 36.8919 2.13706L34.2973 6.41117C33.5808 7.59143 33.9619 9.12051 35.1485 9.82645V9.82645C36.3351 10.5324 37.8778 10.1479 38.5943 8.96763L41.1889 4.69353Z" fill="#0CF469"/>
<path d="M37.3216 2.39271L34.727 6.66681C34.1538 7.61102 34.4587 8.83428 35.408 9.39904C36.3572 9.9638 37.5914 9.6562 38.1646 8.71199L40.7592 4.43788C41.3324 3.49367 41.0275 2.27041 40.0783 1.70565C39.129 1.14089 37.8948 1.4485 37.3216 2.39271Z" stroke="black" stroke-opacity="0.3" stroke-miterlimit="4.29067"/>
</g>
<g filter="url(#filter4_d_0_1)">
<path d="M10.2973 12.6935C9.58082 11.5133 9.96192 9.98418 11.1485 9.27823V9.27823C12.3351 8.57228 13.8779 8.95679 14.5943 10.1371L17.1889 14.4112C17.9054 15.5914 17.5243 17.1205 16.3377 17.8264V17.8264C15.1511 18.5324 13.6084 18.1479 12.8919 16.9676L10.2973 12.6935Z" fill="#0CF469"/>
<path d="M14.1646 10.3927L16.7592 14.6668C17.3324 15.611 17.0276 16.8343 16.0783 17.399C15.129 17.9638 13.8948 17.6562 13.3216 16.712L10.727 12.4379C10.1538 11.4937 10.4587 10.2704 11.408 9.70564C12.3573 9.14088 13.5914 9.44849 14.1646 10.3927Z" stroke="black" stroke-opacity="0.3" stroke-miterlimit="4.29067"/>
</g>
<g filter="url(#filter5_d_0_1)">
<path d="M36.1889 12.6935C36.9054 11.5133 36.5243 9.98418 35.3377 9.27823V9.27823C34.1511 8.57228 32.6084 8.95679 31.8919 10.1371L29.2973 14.4112C28.5808 15.5914 28.9619 17.1205 30.1485 17.8264V17.8264C31.3351 18.5324 32.8778 18.1479 33.5943 16.9676L36.1889 12.6935Z" fill="#0CF469"/>
<path d="M32.3216 10.3927L29.727 14.6668C29.1538 15.611 29.4587 16.8343 30.408 17.399C31.3572 17.9638 32.5914 17.6562 33.1646 16.712L35.7592 12.4379C36.3324 11.4937 36.0275 10.2704 35.0783 9.70564C34.129 9.14088 32.8948 9.44849 32.3216 10.3927Z" stroke="black" stroke-opacity="0.3" stroke-miterlimit="4.29067"/>
</g>
<g filter="url(#filter6_d_0_1)">
<path d="M15.2973 20.6935C14.5808 19.5133 14.9619 17.9842 16.1485 17.2782V17.2782C17.3351 16.5723 18.8779 16.9568 19.5943 18.1371L22.1889 22.4112C22.9054 23.5914 22.5243 25.1205 21.3377 25.8264V25.8264C20.1511 26.5324 18.6084 26.1479 17.8919 24.9676L15.2973 20.6935Z" fill="#0CF469"/>
<path d="M19.1646 18.3927L21.7592 22.6668C22.3324 23.611 22.0276 24.8343 21.0783 25.399C20.129 25.9638 18.8948 25.6562 18.3216 24.712L15.727 20.4379C15.1538 19.4937 15.4587 18.2704 16.408 17.7056C17.3573 17.1409 18.5914 17.4485 19.1646 18.3927Z" stroke="black" stroke-opacity="0.3" stroke-miterlimit="4.29067"/>
</g>
<g filter="url(#filter7_d_0_1)">
<path d="M31.1889 20.6935C31.9054 19.5133 31.5243 17.9842 30.3377 17.2782V17.2782C29.1511 16.5723 27.6084 16.9568 26.8919 18.1371L24.2973 22.4112C23.5808 23.5914 23.9619 25.1205 25.1485 25.8264V25.8264C26.3351 26.5324 27.8779 26.1479 28.5943 24.9676L31.1889 20.6935Z" fill="#0CF469"/>
<path d="M27.3216 18.3927L24.727 22.6668C24.1538 23.611 24.4587 24.8343 25.408 25.399C26.3572 25.9638 27.5914 25.6562 28.1646 24.712L30.7592 20.4379C31.3324 19.4937 31.0275 18.2704 30.0783 17.7056C29.129 17.1409 27.8948 17.4485 27.3216 18.3927Z" stroke="black" stroke-opacity="0.3" stroke-miterlimit="4.29067"/>
</g>
<g filter="url(#filter8_d_0_1)">
<circle cx="23.5" cy="29.5" r="2.5" fill="#0CF469"/>
<circle cx="23.5" cy="29.5" r="2" stroke="black" stroke-opacity="0.3" stroke-miterlimit="4.29067"/>
</g>
<path d="M18.5 6L19.0613 7.72746H20.8776L19.4082 8.79508L19.9695 10.5225L18.5 9.45492L17.0305 10.5225L17.5918 8.79508L16.1224 7.72746H17.9387L18.5 6Z" fill="#DE4312"/>
<path d="M23.5 0L24.0613 1.72746H25.8776L24.4082 2.79508L24.9695 4.52254L23.5 3.45492L22.0305 4.52254L22.5918 2.79508L21.1224 1.72746H22.9387L23.5 0Z" fill="#DE4312"/>
<path d="M28.5 6L29.0613 7.72746H30.8776L29.4082 8.79508L29.9695 10.5225L28.5 9.45492L27.0305 10.5225L27.5918 8.79508L26.1224 7.72746H27.9387L28.5 6Z" fill="#DE4312"/>
<defs>
<filter id="filter0_d_0_1" x="0.935638" y="0.924759" width="15.615" height="17.2552" filterUnits="userSpaceOnUse" color-interpolation-filters="sRGB">
<feFlood flood-opacity="0" result="BackgroundImageFix"/>
<feColorMatrix in="SourceAlpha" type="matrix" values="0 0 0 0 0 0 0 0 0 0 0 0 0 0 0 0 0 0 127 0" result="hardAlpha"/>
<feOffset dy="4"/>
<feGaussianBlur stdDeviation="2"/>
<feComposite in2="hardAlpha" operator="out"/>
<feColorMatrix type="matrix" values="0 0 0 0 0 0 0 0 0 0 0 0 0 0 0 0 0 0 0.25 0"/>
<feBlend mode="normal" in2="BackgroundImageFix" result="effect1_dropShadow_0_1"/>
<feBlend mode="normal" in="SourceGraphic" in2="effect1_dropShadow_0_1" result="shape"/>
</filter>
<filter id="filter1_d_0_1" x="29.9356" y="0.924759" width="15.615" height="17.2552" filterUnits="userSpaceOnUse" color-interpolation-filters="sRGB">
<feFlood flood-opacity="0" result="BackgroundImageFix"/>
<feColorMatrix in="SourceAlpha" type="matrix" values="0 0 0 0 0 0 0 0 0 0 0 0 0 0 0 0 0 0 127 0" result="hardAlpha"/>
<feOffset dy="4"/>
<feGaussianBlur stdDeviation="2"/>
<feComposite in2="hardAlpha" operator="out"/>
<feColorMatrix type="matrix" values="0 0 0 0 0 0 0 0 0 0 0 0 0 0 0 0 0 0 0.25 0"/>
<feBlend mode="normal" in2="BackgroundImageFix" result="effect1_dropShadow_0_1"/>
<feBlend mode="normal" in="SourceGraphic" in2="effect1_dropShadow_0_1" result="shape"/>
</filter>
<filter id="filter2_d_0_1" x="0.935638" y="0.924759" width="15.615" height="17.2552" filterUnits="userSpaceOnUse" color-interpolation-filters="sRGB">
<feFlood flood-opacity="0" result="BackgroundImageFix"/>
<feColorMatrix in="SourceAlpha" type="matrix" values="0 0 0 0 0 0 0 0 0 0 0 0 0 0 0 0 0 0 127 0" result="hardAlpha"/>
<feOffset dy="4"/>
<feGaussianBlur stdDeviation="2"/>
<feComposite in2="hardAlpha" operator="out"/>
<feColorMatrix type="matrix" values="0 0 0 0 0 0 0 0 0 0 0 0 0 0 0 0 0 0 0.25 0"/>
<feBlend mode="normal" in2="BackgroundImageFix" result="effect1_dropShadow_0_1"/>
<feBlend mode="normal" in="SourceGraphic" in2="effect1_dropShadow_0_1" result="shape"/>
</filter>
<filter id="filter3_d_0_1" x="29.9356" y="0.924759" width="15.615" height="17.2552" filterUnits="userSpaceOnUse" color-interpolation-filters="sRGB">
<feFlood flood-opacity="0" result="BackgroundImageFix"/>
<feColorMatrix in="SourceAlpha" type="matrix" values="0 0 0 0 0 0 0 0 0 0 0 0 0 0 0 0 0 0 127 0" result="hardAlpha"/>
<feOffset dy="4"/>
<feGaussianBlur stdDeviation="2"/>
<feComposite in2="hardAlpha" operator="out"/>
<feColorMatrix type="matrix" values="0 0 0 0 0 0 0 0 0 0 0 0 0 0 0 0 0 0 0.25 0"/>
<feBlend mode="normal" in2="BackgroundImageFix" result="effect1_dropShadow_0_1"/>
<feBlend mode="normal" in="SourceGraphic" in2="effect1_dropShadow_0_1" result="shape"/>
</filter>
<filter id="filter4_d_0_1" x="5.93564" y="8.92475" width="15.615" height="17.2552" filterUnits="userSpaceOnUse" color-interpolation-filters="sRGB">
<feFlood flood-opacity="0" result="BackgroundImageFix"/>
<feColorMatrix in="SourceAlpha" type="matrix" values="0 0 0 0 0 0 0 0 0 0 0 0 0 0 0 0 0 0 127 0" result="hardAlpha"/>
<feOffset dy="4"/>
<feGaussianBlur stdDeviation="2"/>
<feComposite in2="hardAlpha" operator="out"/>
<feColorMatrix type="matrix" values="0 0 0 0 0 0 0 0 0 0 0 0 0 0 0 0 0 0 0.25 0"/>
<feBlend mode="normal" in2="BackgroundImageFix" result="effect1_dropShadow_0_1"/>
<feBlend mode="normal" in="SourceGraphic" in2="effect1_dropShadow_0_1" result="shape"/>
</filter>
<filter id="filter5_d_0_1" x="24.9356" y="8.92475" width="15.615" height="17.2552" filterUnits="userSpaceOnUse" color-interpolation-filters="sRGB">
<feFlood flood-opacity="0" result="BackgroundImageFix"/>
<feColorMatrix in="SourceAlpha" type="matrix" values="0 0 0 0 0 0 0 0 0 0 0 0 0 0 0 0 0 0 127 0" result="hardAlpha"/>
<feOffset dy="4"/>
<feGaussianBlur stdDeviation="2"/>
<feComposite in2="hardAlpha" operator="out"/>
<feColorMatrix type="matrix" values="0 0 0 0 0 0 0 0 0 0 0 0 0 0 0 0 0 0 0.25 0"/>
<feBlend mode="normal" in2="BackgroundImageFix" result="effect1_dropShadow_0_1"/>
<feBlend mode="normal" in="SourceGraphic" in2="effect1_dropShadow_0_1" result="shape"/>
</filter>
<filter id="filter6_d_0_1" x="10.9356" y="16.9248" width="15.615" height="17.2552" filterUnits="userSpaceOnUse" color-interpolation-filters="sRGB">
<feFlood flood-opacity="0" result="BackgroundImageFix"/>
<feColorMatrix in="SourceAlpha" type="matrix" values="0 0 0 0 0 0 0 0 0 0 0 0 0 0 0 0 0 0 127 0" result="hardAlpha"/>
<feOffset dy="4"/>
<feGaussianBlur stdDeviation="2"/>
<feComposite in2="hardAlpha" operator="out"/>
<feColorMatrix type="matrix" values="0 0 0 0 0 0 0 0 0 0 0 0 0 0 0 0 0 0 0.25 0"/>
<feBlend mode="normal" in2="BackgroundImageFix" result="effect1_dropShadow_0_1"/>
<feBlend mode="normal" in="SourceGraphic" in2="effect1_dropShadow_0_1" result="shape"/>
</filter>
<filter id="filter7_d_0_1" x="19.9356" y="16.9248" width="15.615" height="17.2552" filterUnits="userSpaceOnUse" color-interpolation-filters="sRGB">
<feFlood flood-opacity="0" result="BackgroundImageFix"/>
<feColorMatrix in="SourceAlpha" type="matrix" values="0 0 0 0 0 0 0 0 0 0 0 0 0 0 0 0 0 0 127 0" result="hardAlpha"/>
<feOffset dy="4"/>
<feGaussianBlur stdDeviation="2"/>
<feComposite in2="hardAlpha" operator="out"/>
<feColorMatrix type="matrix" values="0 0 0 0 0 0 0 0 0 0 0 0 0 0 0 0 0 0 0.25 0"/>
<feBlend mode="normal" in2="BackgroundImageFix" result="effect1_dropShadow_0_1"/>
<feBlend mode="normal" in="SourceGraphic" in2="effect1_dropShadow_0_1" result="shape"/>
</filter>
<filter id="filter8_d_0_1" x="17" y="27" width="13" height="13" filterUnits="userSpaceOnUse" color-interpolation-filters="sRGB">
<feFlood flood-opacity="0" result="BackgroundImageFix"/>
<feColorMatrix in="SourceAlpha" type="matrix" values="0 0 0 0 0 0 0 0 0 0 0 0 0 0 0 0 0 0 127 0" result="hardAlpha"/>
<feOffset dy="4"/>
<feGaussianBlur stdDeviation="2"/>
<feComposite in2="hardAlpha" operator="out"/>
<feColorMatrix type="matrix" values="0 0 0 0 0 0 0 0 0 0 0 0 0 0 0 0 0 0 0.25 0"/>
<feBlend mode="normal" in2="BackgroundImageFix" result="effect1_dropShadow_0_1"/>
<feBlend mode="normal" in="SourceGraphic" in2="effect1_dropShadow_0_1" result="shape"/>
</filter>
</defs>
</svg>
